<svg xmlns="http://www.w3.org/2000/svg" viewBox="0 0 48 48" fill="none" role="img" aria-labelledby="title desc">
  <title id="title">X-oscope</title>
  <desc id="desc">A ribbon X: blue and gold paths cross, with a coral branch opening toward another future, on midnight blue.</desc>
  <path fill="#141e2d" d="M0 0h48v48H0z"/>
  <path fill="#f5d887" d="M7 40C13 28 21 25 26 18C29 14 31 10 33 7H41C36 15 31 21 26 26C20 31 16 36 14 40Z"/>
  <path fill="#141e2d" d="M6 6H16C21 17 25 21 30 26C35 30 40 32 44 33L40 43C29 38 21 31 16 23C12 16 9 11 6 6Z"/>
  <path fill="#a9dcf3" d="M7 7H15C19 17 24 22 29 27C34 31 38 33 42 34L39 40C30 36 23 30 18 23C14 16 11 11 7 7Z"/>
  <path fill="#f3ab96" d="M24 24C30 24 34 20 40 14L43 17C36 23 31 26 26 27Z"/>
</svg>
